<svg xmlns="http://www.w3.org/2000/svg" viewBox="0 0 602 130" role="img" aria-label="GAME FROST"><style>.arm{transform-origin:0 0;animation:form .55s both}.a1{animation-delay:.09s}.a2{animation-delay:.18s}.a3{animation-delay:.27s}.a4{animation-delay:.36s}.a5{animation-delay:.45s}.word{animation:frost 1.2s both}@keyframes form{from{opacity:0;transform:translateY(-12px) scale(.3)}to{opacity:1;transform:none}}@keyframes frost{0%,30%{opacity:0;transform:translateX(8px)}100%{opacity:1;transform:none}}@media(prefers-reduced-motion:reduce){.arm,.word{animation:none}}</style><g transform="translate(58 65) scale(0.8)" fill="#7FE7FF"><g class="arm a0"><g transform="rotate(0)"><path d="M-4-8V-35H-11V-43H-4V-50H4V-43H11V-35H4V-8Z"/><rect x="-3" y="-59" width="6" height="6"/></g></g><g class="arm a1"><g transform="rotate(60)"><path d="M-4-8V-35H-11V-43H-4V-50H4V-43H11V-35H4V-8Z"/><rect x="-3" y="-59" width="6" height="6"/></g></g><g class="arm a2"><g transform="rotate(120)"><path d="M-4-8V-35H-11V-43H-4V-50H4V-43H11V-35H4V-8Z"/><rect x="-3" y="-59" width="6" height="6"/></g></g><g class="arm a3"><g transform="rotate(180)"><path d="M-4-8V-35H-11V-43H-4V-50H4V-43H11V-35H4V-8Z"/><rect x="-3" y="-59" width="6" height="6"/></g></g><g class="arm a4"><g transform="rotate(240)"><path d="M-4-8V-35H-11V-43H-4V-50H4V-43H11V-35H4V-8Z"/><rect x="-3" y="-59" width="6" height="6"/></g></g><g class="arm a5"><g transform="rotate(300)"><path d="M-4-8V-35H-11V-43H-4V-50H4V-43H11V-35H4V-8Z"/><rect x="-3" y="-59" width="6" height="6"/></g></g><path d="m0-9 8 4v10l-8 4-8-4V-5Z"/></g><g class="word"><path d="M179.414 66.775Q179.255 70.379 177.9565 73.6385Q176.65800000000002 76.898 174.1935 79.44200000000001Q171.72899999999998 81.986 168.0455 83.417Q164.362 84.848 159.486 84.848Q154.822 84.848 150.74099999999999 83.4965Q146.66 82.145 143.5595 79.495Q140.459 76.845 138.7365 72.976Q137.014 69.107 137.014 64.125Q137.014 59.143 138.763 55.274Q140.512 51.405 143.6655 48.755Q146.819 46.105000000000004 150.97949999999997 44.7535Q155.14 43.402 160.069 43.402Q166.641 43.402 171.411 45.416Q176.18099999999998 47.43 179.096 50.928Q182.011 54.426 182.859 59.037H171.78199999999998Q171.252 57.022999999999996 169.6355 55.5655Q168.019 54.108000000000004 165.60750000000002 53.3395Q163.196 52.571 160.122 52.571Q156.412 52.571 153.709 53.8695Q151.006 55.168 149.522 57.7385Q148.038 60.309 148.038 64.125Q148.038 67.994 149.628 70.644Q151.218 73.294 154.15949999999998 74.619Q157.101 75.944 161.076 75.944Q164.945 75.944 167.913 74.8575Q170.881 73.771 172.6565 71.65100000000001Q174.43200000000002 69.531 174.697 66.563ZM162.136 71.174V63.436H183.23V84.0H175.439L173.902 68.259L175.969 71.174Z" fill="#EAF6FF"/><path d="M196.34 76.368V67.517H223.74099999999999V76.368ZM217.487 44.25 235.56 84.0H223.84699999999998L208.689 48.914H211.869L196.658 84.0H184.945L203.018 44.25Z" fill="#EAF6FF"/><path d="M296.21099999999996 44.25V84.0H285.77V48.172000000000004L288.102 48.437L272.73199999999997 84.0H261.602L246.17899999999997 48.543L248.564 48.278V84.0H238.123V44.25H255.08299999999997L269.34 78.382H265.09999999999997L279.251 44.25Z" fill="#EAF6FF"/><path d="M336.404 60.150000000000006V68.1H307.307V60.150000000000006ZM314.78000000000003 64.125 312.183 80.078 307.731 75.096H338.153V84.0H301.212L304.233 64.125L301.212 44.25H337.88800000000003V53.153999999999996H307.731L312.183 48.172000000000004Z" fill="#EAF6FF"/><path d="M370.866 60.521H399.698V69.796H370.866ZM400.705 44.25V53.525000000000006H371.237L376.484 48.278V84.0H365.513V44.25Z" fill="#7FE7FF"/><path d="M412.755 61.634H427.224Q429.874 61.634 431.358 60.415Q432.842 59.196 432.842 57.022999999999996Q432.842 54.797 431.358 53.6045Q429.874 52.412000000000006 427.224 52.412000000000006H411.218L416.147 47.165V84.0H405.176V44.25H428.761Q433.319 44.25 436.711 45.8665Q440.103 47.483000000000004 442.01099999999997 50.3185Q443.919 53.153999999999996 443.919 57.022999999999996Q443.919 60.786 442.01099999999997 63.648Q440.103 66.51 436.711 68.1Q433.319 69.69 428.761 69.69H412.755ZM418.69100000000003 65.397H431.04L445.297 84.0H432.577Z" fill="#7FE7FF"/><path d="M470.862 84.848Q463.81300000000005 84.848 458.48650000000004 82.251Q453.16 79.654 450.21850000000006 74.99Q447.27700000000004 70.326 447.27700000000004 64.125Q447.27700000000004 57.924 450.21850000000006 53.260000000000005Q453.16 48.596000000000004 458.48650000000004 45.999Q463.81300000000005 43.402 470.862 43.402Q477.96400000000006 43.402 483.264 45.999Q488.564 48.596000000000004 491.53200000000004 53.260000000000005Q494.5 57.924 494.5 64.125Q494.5 70.326 491.53200000000004 74.99Q488.564 79.654 483.264 82.251Q477.96400000000006 84.848 470.862 84.848ZM470.862 75.043Q474.73100000000005 75.043 477.5400000000001 73.718Q480.34900000000005 72.393 481.8595 69.955Q483.37 67.517 483.37 64.125Q483.37 60.733000000000004 481.8595 58.295Q480.34900000000005 55.857 477.5400000000001 54.532Q474.73100000000005 53.207 470.862 53.207Q467.04600000000005 53.207 464.2370000000001 54.532Q461.42800000000005 55.857 459.8910000000001 58.295Q458.35400000000004 60.733000000000004 458.35400000000004 64.125Q458.35400000000004 67.517 459.8910000000001 69.955Q461.42800000000005 72.393 464.2370000000001 73.718Q467.04600000000005 75.043 470.862 75.043Z" fill="#7FE7FF"/><path d="M497.16900000000004 70.962H508.35200000000003Q508.617 72.605 509.889 73.82400000000001Q511.161 75.043 513.3075 75.7055Q515.4540000000001 76.368 518.369 76.368Q522.397 76.368 524.729 75.33449999999999Q527.061 74.301 527.061 72.287Q527.061 70.75 525.7360000000001 69.902Q524.4110000000001 69.054 520.648 68.68299999999999L513.2280000000001 67.994Q505.01300000000003 67.252 501.303 64.2575Q497.593 61.263000000000005 497.593 56.175Q497.593 52.041 500.0045 49.179Q502.416 46.317 506.7885 44.8595Q511.161 43.402 516.991 43.402Q522.715 43.402 527.167 45.0185Q531.619 46.635 534.2425000000001 49.602999999999994Q536.866 52.571 537.078 56.493H525.948Q525.736 55.062 524.5965 54.0285Q523.457 52.995000000000005 521.4960000000001 52.438500000000005Q519.5350000000001 51.882 516.779 51.882Q513.0690000000001 51.882 510.8960000000001 52.8625Q508.723 53.843 508.723 55.751000000000005Q508.723 57.129000000000005 510.02150000000006 57.977000000000004Q511.32000000000005 58.825 514.712 59.143L522.609 59.938Q528.28 60.468 531.672 61.7665Q535.0640000000001 63.065 536.6010000000001 65.344Q538.138 67.623 538.138 71.015Q538.138 75.202 535.647 78.30250000000001Q533.1560000000001 81.403 528.6510000000001 83.1255Q524.1460000000001 84.848 518.157 84.848Q512.009 84.848 507.31850000000003 83.1255Q502.62800000000004 81.403 499.97800000000007 78.24950000000001Q497.32800000000003 75.096 497.16900000000004 70.962Z" fill="#7FE7FF"/><path d="M554.905 49.073H565.929V84.0H554.905ZM539.747 44.25H581.087V54.002H539.747Z" fill="#7FE7FF"/></g></svg>