<svg xmlns="http://www.w3.org/2000/svg" viewBox="0 0 760 700" fill="none" role="img" aria-label="spider-man illustrated performance"><defs>
    <linearGradient id="poster-spider-man-red" x1="0" y1="0" x2="1" y2="1"><stop stop-color="#f34c57"/><stop offset=".32" stop-color="#c9213c"/><stop offset=".72" stop-color="#aa122d"/><stop offset="1" stop-color="#580d29"/></linearGradient>
    <linearGradient id="poster-spider-man-glove" x1="0" y1="0" x2="1" y2="1"><stop stop-color="#ff6a65"/><stop offset=".38" stop-color="#dc2e40"/><stop offset="1" stop-color="#85112f"/></linearGradient>
    <linearGradient id="poster-spider-man-blue" x1="0" y1="0" x2="1" y2="1"><stop stop-color="#388bca"/><stop offset=".34" stop-color="#155da5"/><stop offset=".76" stop-color="#143476"/><stop offset="1" stop-color="#101b49"/></linearGradient>
    <linearGradient id="poster-spider-man-eye" x1="0" y1="0" x2="1" y2="1"><stop stop-color="#ffffff"/><stop offset=".7" stop-color="#e0eef9"/><stop offset="1" stop-color="#88b4d2"/></linearGradient>
    <radialGradient id="poster-spider-man-web-light"><stop stop-color="#b4f1ff" stop-opacity=".55"/><stop offset="1" stop-color="#b4f1ff" stop-opacity="0"/></radialGradient>
  </defs><defs><radialGradient id="poster-spider-man-floor"><stop stop-color="#030713" stop-opacity="0.43"/><stop offset="1" stop-color="#030713" stop-opacity="0"/></radialGradient></defs><ellipse cx="325" cy="627" rx="156" ry="18" fill="url(#poster-spider-man-floor)" /><path d="M276.088 417.176 Q231.477 450.53 192.497 497.307 Q207.745 558.846 236.784 611.619 Q254.619 620.216 263.216 602.381 Q250.224 543.998 234.911 509.014 Q266.736 492.741 309.423 457.085 Q309.64 423.027 276.088 417.176 Z" fill="url(#poster-spider-man-blue)" stroke="#080f24" stroke-width="3" stroke-linejoin="round" stroke-linecap="round" /><path d="M293.184 453.711 Q257.804 488.475 225.272 506.354 Q244.923 547.016 251.237 583.262" fill="none" stroke="#0b2255" stroke-width="7" stroke-linejoin="round" stroke-linecap="round" opacity=".45"/><path d="M203.101 500.234 Q208.332 507.648 221.416 505.289" fill="none" stroke="#183869" stroke-width="2.3" stroke-linejoin="round" stroke-linecap="round" opacity=".75"/><path d="M266.24 442.34 Q244.853 453.69 225.924 476.015" fill="none" stroke="#6abbdf" stroke-width="2.3" stroke-linejoin="round" stroke-linecap="round" opacity=".45"/><path d="M327.612 455.258 Q369.442 492.039 404.069 506.473 Q392.393 544.396 392.202 604.632 Q403.632 620.798 419.798 609.368 Q436.745 552.008 445.143 490.696 Q403.483 448.839 359.796 414.415 Q326.424 421.22 327.612 455.258 Z" fill="url(#poster-spider-man-blue)" stroke="#080f24" stroke-width="3" stroke-linejoin="round" stroke-linecap="round" /><path d="M359.84 431 Q401.149 458.458 435.808 494.282 Q430.645 552.077 418.591 586.839" fill="none" stroke="#0b2255" stroke-width="7" stroke-linejoin="round" stroke-linecap="round" opacity=".45"/><path d="M414.337 502.529 Q430.104 502.917 432.074 495.716" fill="none" stroke="#183869" stroke-width="2.3" stroke-linejoin="round" stroke-linecap="round" opacity=".75"/><path d="M354.265 459.71 Q369.778 478.299 395.525 492.221" fill="none" stroke="#6abbdf" stroke-width="2.3" stroke-linejoin="round" stroke-linecap="round" opacity=".45"/><path d="M276.945 450.337 L229.515 489.955" fill="none" stroke="#64c7eb" stroke-width="3" stroke-linecap="round" opacity=".45"/><path d="M361.502 448.861 L412.47 489.023" fill="none" stroke="#64c7eb" stroke-width="3" stroke-linecap="round" opacity=".48"/><path d="M207.601 540.252 L236.784 611.619 Q254.619 620.216 263.216 602.381 L241.585 528.373 Q218.654 517.32 207.601 540.252 Z" fill="url(#poster-spider-man-red)" stroke="#080f24" stroke-width="2.8" stroke-linejoin="round" stroke-linecap="round" /><g transform="translate(224.593 534.312) rotate(70.734)"><path d="M3 0 L73 0" fill="none" stroke="#480c2a" stroke-width="1.35" stroke-linecap="round" opacity=".82"/><path d="M4 -8.4 L72 -7.8" fill="none" stroke="#550d2d" stroke-width="1.15" stroke-linecap="round" opacity=".75"/><path d="M4 8.25 L72 7.8" fill="none" stroke="#550d2d" stroke-width="1.15" stroke-linecap="round" opacity=".75"/><path d="M10.857 -12.6 Q19.857 0 10.857 12.6" fill="none" stroke="#4c0c2b" stroke-width="1.15" stroke-linejoin="round" stroke-linecap="round" opacity=".82"/><path d="M20.714 -12.6 Q29.714 0 20.714 12.6" fill="none" stroke="#4c0c2b" stroke-width="1.15" stroke-linejoin="round" stroke-linecap="round" opacity=".82"/><path d="M30.571 -12.6 Q39.571 0 30.571 12.6" fill="none" stroke="#4c0c2b" stroke-width="1.15" stroke-linejoin="round" stroke-linecap="round" opacity=".82"/><path d="M40.429 -12.6 Q49.429 0 40.429 12.6" fill="none" stroke="#4c0c2b" stroke-width="1.15" stroke-linejoin="round" stroke-linecap="round" opacity=".82"/><path d="M50.286 -12.6 Q59.286 0 50.286 12.6" fill="none" stroke="#4c0c2b" stroke-width="1.15" stroke-linejoin="round" stroke-linecap="round" opacity=".82"/><path d="M60.143 -12.6 Q69.143 0 60.143 12.6" fill="none" stroke="#4c0c2b" stroke-width="1.15" stroke-linejoin="round" stroke-linecap="round" opacity=".82"/></g><path d="M238 598 Q264 604 263 622 Q238 629 213 618 Q209 613 237 608 Z" fill="url(#poster-spider-man-red)" stroke="#080f24" stroke-width="3" stroke-linejoin="round" stroke-linecap="round" /><path d="M263 622 Q242 628 213 618" fill="none" stroke="#0b1428" stroke-width="5" stroke-linejoin="round" stroke-linecap="round" /><path d="M242 608 L219 616" fill="none" stroke="#ff8585" stroke-width="2" stroke-linecap="round" opacity=".65"/><path d="M401.283 528.065 L392.202 604.632 Q403.632 620.798 419.798 609.368 L436.765 534.154 Q422.069 513.369 401.283 528.065 Z" fill="url(#poster-spider-man-red)" stroke="#080f24" stroke-width="2.8" stroke-linejoin="round" stroke-linecap="round" /><g transform="translate(419.024 531.109) rotate(99.738)"><path d="M3 0 L73 0" fill="none" stroke="#480c2a" stroke-width="1.35" stroke-linecap="round" opacity=".82"/><path d="M4 -8.4 L72 -7.8" fill="none" stroke="#550d2d" stroke-width="1.15" stroke-linecap="round" opacity=".75"/><path d="M4 8.25 L72 7.8" fill="none" stroke="#550d2d" stroke-width="1.15" stroke-linecap="round" opacity=".75"/><path d="M10.857 -12.6 Q19.857 0 10.857 12.6" fill="none" stroke="#4c0c2b" stroke-width="1.15" stroke-linejoin="round" stroke-linecap="round" opacity=".82"/><path d="M20.714 -12.6 Q29.714 0 20.714 12.6" fill="none" stroke="#4c0c2b" stroke-width="1.15" stroke-linejoin="round" stroke-linecap="round" opacity=".82"/><path d="M30.571 -12.6 Q39.571 0 30.571 12.6" fill="none" stroke="#4c0c2b" stroke-width="1.15" stroke-linejoin="round" stroke-linecap="round" opacity=".82"/><path d="M40.429 -12.6 Q49.429 0 40.429 12.6" fill="none" stroke="#4c0c2b" stroke-width="1.15" stroke-linejoin="round" stroke-linecap="round" opacity=".82"/><path d="M50.286 -12.6 Q59.286 0 50.286 12.6" fill="none" stroke="#4c0c2b" stroke-width="1.15" stroke-linejoin="round" stroke-linecap="round" opacity=".82"/><path d="M60.143 -12.6 Q69.143 0 60.143 12.6" fill="none" stroke="#4c0c2b" stroke-width="1.15" stroke-linejoin="round" stroke-linecap="round" opacity=".82"/></g><path d="M418 598 Q392 604 393 622 Q418 629 443 618 Q447 613 419 608 Z" fill="url(#poster-spider-man-red)" stroke="#080f24" stroke-width="3" stroke-linejoin="round" stroke-linecap="round" /><path d="M393 622 Q414 628 443 618" fill="none" stroke="#0b1428" stroke-width="5" stroke-linejoin="round" stroke-linecap="round" /><path d="M414 608 L437 616" fill="none" stroke="#ff8585" stroke-width="2" stroke-linecap="round" opacity=".65"/><path d="M258.955 298.233 L190.038 348.028 Q185.915 370.276 208.164 374.399 L279.346 327.901 Q283.985 302.871 258.955 298.233 Z" fill="url(#poster-spider-man-blue)" stroke="#101323" stroke-width="3" stroke-linejoin="round" stroke-linecap="round" /><path d="M186.049 370.468 L238.579 441.098 Q258.098 444.421 261.421 424.902 L212.153 351.959 Q189.847 348.161 186.049 370.468 Z" fill="url(#poster-spider-man-blue)" stroke="#101323" stroke-width="3" stroke-linejoin="round" stroke-linecap="round" /><circle cx="199.101" cy="361.213" r="15" fill="url(#poster-spider-man-blue)" stroke="none" stroke-width="2" /><path d="M276.616 314.259 Q206.567 362.406 257.465 434.192" fill="none" stroke="#080e36" stroke-width="5.6000000000000005" stroke-linecap="round" opacity=".55"/><path d="M257.256 295.761 L226.732 320.38 Q222.094 345.41 247.124 350.048 L281.046 330.373 Q286.457 301.172 257.256 295.761 Z" fill="url(#poster-spider-man-red)" stroke="#080f24" stroke-width="2.6" stroke-linejoin="round" stroke-linecap="round" /><g transform="translate(269.151 313.067) rotate(145.498)"><path d="M3 0 L35.1 0" fill="none" stroke="#480c2a" stroke-width="1.35" stroke-linecap="round" opacity=".82"/><path d="M4 -8.96 L34.1 -8.32" fill="none" stroke="#550d2d" stroke-width="1.15" stroke-linecap="round" opacity=".75"/><path d="M4 8.8 L34.1 8.32" fill="none" stroke="#550d2d" stroke-width="1.15" stroke-linecap="round" opacity=".75"/><path d="M8.775 -13.44 Q17.775 0 8.775 13.44" fill="none" stroke="#4c0c2b" stroke-width="1.15" stroke-linejoin="round" stroke-linecap="round" opacity=".82"/><path d="M16.55 -13.44 Q25.55 0 16.55 13.44" fill="none" stroke="#4c0c2b" stroke-width="1.15" stroke-linejoin="round" stroke-linecap="round" opacity=".82"/><path d="M24.325 -13.44 Q33.325 0 24.325 13.44" fill="none" stroke="#4c0c2b" stroke-width="1.15" stroke-linejoin="round" stroke-linecap="round" opacity=".82"/></g><path d="M260.745 318.845 Q199.101 351.213 204.191 368.392" fill="none" stroke="#7dc4e6" stroke-width="2.4" stroke-linejoin="round" stroke-linecap="round" opacity=".45"/><path d="M199.283 389.132 L240.211 439.941 Q256.941 442.789 259.789 426.059 L225.387 370.624 Q203.081 366.826 199.283 389.132 Z" fill="url(#poster-spider-man-glove)" stroke="#080f24" stroke-width="2.5" stroke-linejoin="round" stroke-linecap="round" /><g transform="translate(212.335 379.878) rotate(54.662)"><path d="M3 0 L61.12 0" fill="none" stroke="#480c2a" stroke-width="1.35" stroke-linecap="round" opacity=".82"/><path d="M4 -7.28 L60.12 -6.76" fill="none" stroke="#550d2d" stroke-width="1.15" stroke-linecap="round" opacity=".75"/><path d="M4 7.15 L60.12 6.76" fill="none" stroke="#550d2d" stroke-width="1.15" stroke-linecap="round" opacity=".75"/><path d="M10.52 -10.92 Q19.52 0 10.52 10.92" fill="none" stroke="#4c0c2b" stroke-width="1.15" stroke-linejoin="round" stroke-linecap="round" opacity=".82"/><path d="M20.04 -10.92 Q29.04 0 20.04 10.92" fill="none" stroke="#4c0c2b" stroke-width="1.15" stroke-linejoin="round" stroke-linecap="round" opacity=".82"/><path d="M29.56 -10.92 Q38.56 0 29.56 10.92" fill="none" stroke="#4c0c2b" stroke-width="1.15" stroke-linejoin="round" stroke-linecap="round" opacity=".82"/><path d="M39.08 -10.92 Q48.08 0 39.08 10.92" fill="none" stroke="#4c0c2b" stroke-width="1.15" stroke-linejoin="round" stroke-linecap="round" opacity=".82"/><path d="M48.6 -10.92 Q57.6 0 48.6 10.92" fill="none" stroke="#4c0c2b" stroke-width="1.15" stroke-linejoin="round" stroke-linecap="round" opacity=".82"/></g><circle cx="199.101" cy="361.213" r="5" fill="#131e4c" stroke="none" stroke-width="0" opacity=".4"/><path d="M217.985 387.846 L242.467 422.376" fill="none" stroke="#ff8990" stroke-width="2.1" stroke-linecap="round" opacity=".45"/><g transform="translate(250 433) rotate(54.662)"><path d="M-8 -12 L8 -13 Q19 -11 21 -1 L20 13 Q12 22 -3 15 L-12 7 Z" fill="url(#poster-spider-man-glove)" stroke="#080f24" stroke-width="2.5" stroke-linejoin="round" stroke-linecap="round" /><path d="M3 -11 L13 -9 L16 -1 M-2 -6 L14 -2 M-3 1 L16 5 M1 8 L13 12" fill="none" stroke="#550b2b" stroke-width="1.4" stroke-linejoin="round" stroke-linecap="round" /><path d="M-8 -4 Q-15 -6 -13 1 L-5 9" fill="url(#poster-spider-man-red)" stroke="#080f24" stroke-width="2" stroke-linejoin="round" stroke-linecap="round" /></g><g transform="translate(312.512 320.124) rotate(-2.578)"><path d="M-38 -23 Q-14 -34 6 -31 Q28 -31 44 -20 L55 5 Q40 25 36 49 L28 91 Q38 103 37 119 Q17 136 -8 131 Q-31 132 -39 118 L-29 88 Q-33 55 -46 24 L-53 5 Z" fill="url(#poster-spider-man-blue)" stroke="#080f24" stroke-width="3.5" stroke-linejoin="round" stroke-linecap="round" /><path d="M-22 -26 Q0 -36 22 -28 L30 -7 Q23 13 27 32 L17 78 Q14 99 25 116 Q4 126 -19 119 Q-13 101 -19 81 L-27 29 Q-23 9 -29 -10 Z" fill="url(#poster-spider-man-red)" stroke="#080f24" stroke-width="2" stroke-linejoin="round" stroke-linecap="round" /><path d="M-38 -23 Q-17 -35 -7 -28 L-13 -8 Q-30 -4 -47 9 L-53 4 Z" fill="url(#poster-spider-man-red)" stroke="#080f24" stroke-width="2" stroke-linejoin="round" stroke-linecap="round" /><path d="M22 -28 Q39 -28 45 -19 L55 4 L39 16 L29 -2 Z" fill="url(#poster-spider-man-red)" stroke="#080f24" stroke-width="2" stroke-linejoin="round" stroke-linecap="round" /><path d="M-36 108 Q-5 113 32 106 L37 118 Q2 134 -39 118 Z" fill="url(#poster-spider-man-red)" stroke="#080f24" stroke-width="2" stroke-linejoin="round" stroke-linecap="round" /><path d="M-35 14 Q-25 16 -22 33 M32 14 Q25 24 26 37 M-30 48 Q-22 47 -19 62 M26 53 Q19 58 18 72" fill="none" stroke="#74bae0" stroke-width="2.2" stroke-linejoin="round" stroke-linecap="round" opacity=".55"/><path d="M-23 -6 Q-9 1 3 -2 Q13 3 27 -5 M-20 39 Q-5 44 22 38 M-17 58 Q-2 63 20 57 M-16 79 Q1 84 18 78 M-15 99 Q-1 104 21 98" fill="none" stroke="#7a122e" stroke-width="2" stroke-linejoin="round" stroke-linecap="round" opacity=".7"/><path d="M-14 -26 Q-17 20 -14 58 Q-12 87 -14 112" fill="none" stroke="#5b0c29" stroke-width="1.2" stroke-linejoin="round" stroke-linecap="round" opacity=".85"/><path d="M-3 -26 Q-6 20 -3 58 Q-1 87 -3 112" fill="none" stroke="#5b0c29" stroke-width="1.2" stroke-linejoin="round" stroke-linecap="round" opacity=".85"/><path d="M9 -26 Q6 20 9 58 Q11 87 9 112" fill="none" stroke="#5b0c29" stroke-width="1.2" stroke-linejoin="round" stroke-linecap="round" opacity=".85"/><path d="M19 -26 Q16 20 19 58 Q21 87 19 112" fill="none" stroke="#5b0c29" stroke-width="1.2" stroke-linejoin="round" stroke-linecap="round" opacity=".85"/><path d="M-22.51 -17 Q0 -7 25.595 -17" fill="none" stroke="#560c2b" stroke-width="1.2" stroke-linejoin="round" stroke-linecap="round" opacity=".82"/><path d="M-22.15 -5 Q0 5 25.175 -5" fill="none" stroke="#560c2b" stroke-width="1.2" stroke-linejoin="round" stroke-linecap="round" opacity=".82"/><path d="M-21.7 10 Q0 20 24.65 10" fill="none" stroke="#560c2b" stroke-width="1.2" stroke-linejoin="round" stroke-linecap="round" opacity=".82"/><path d="M-21.19 27 Q0 37 24.055 27" fill="none" stroke="#560c2b" stroke-width="1.2" stroke-linejoin="round" stroke-linecap="round" opacity=".82"/><path d="M-20.68 44 Q0 54 23.46 44" fill="none" stroke="#560c2b" stroke-width="1.2" stroke-linejoin="round" stroke-linecap="round" opacity=".82"/><path d="M-20.17 61 Q0 71 22.865 61" fill="none" stroke="#560c2b" stroke-width="1.2" stroke-linejoin="round" stroke-linecap="round" opacity=".82"/><path d="M-19.63 79 Q0 89 22.235 79" fill="none" stroke="#560c2b" stroke-width="1.2" stroke-linejoin="round" stroke-linecap="round" opacity=".82"/><path d="M-19.12 96 Q0 106 21.64 96" fill="none" stroke="#560c2b" stroke-width="1.2" stroke-linejoin="round" stroke-linecap="round" opacity=".82"/><path d="M-18.64 112 Q0 122 21.08 112" fill="none" stroke="#560c2b" stroke-width="1.2" stroke-linejoin="round" stroke-linecap="round" opacity=".82"/><path d="M-29 -21 Q-36 -12 -46 -4 M-25 -16 Q-35 -4 -48 1 M29 -21 Q38 -10 48 -4 M32 -14 Q40 -6 50 2" fill="none" stroke="#620e2d" stroke-width="1.2" stroke-linejoin="round" stroke-linecap="round" /><path d="M-34 110 Q-4 119 32 110 M-32 117 Q-4 126 29 117" fill="none" stroke="#5f0925" stroke-width="1.2" stroke-linejoin="round" stroke-linecap="round" /><ellipse cx="2" cy="27" rx="4.2" ry="6.5" fill="#080f24" /><ellipse cx="2" cy="38" rx="5.5" ry="9" fill="#080f24" /><path d="M0 28 L-7 20 L-12 13 M-1 32 L-12 26 L-19 24 M-2 36 L-13 38 L-18 45 M-1 42 L-8 51 L-10 61" fill="none" stroke="#080f24" stroke-width="2.7" stroke-linejoin="round" stroke-linecap="round" /><path d="M4 28 L11 20 L16 13 M5 32 L16 26 L23 24 M6 36 L17 38 L22 45 M5 42 L12 51 L14 61" fill="none" stroke="#080f24" stroke-width="2.7" stroke-linejoin="round" stroke-linecap="round" /><path d="M-12 -24 Q-5 -27 4 -27 M-17 71 L-15 92 M-32 11 Q-37 31 -31 43" fill="none" stroke="#ff8991" stroke-width="2.4" stroke-linejoin="round" stroke-linecap="round" opacity=".52"/></g><path d="M326.379 297.412 L327.486 284.32 Q313.804 268.109 297.593 281.791 L296.486 294.883 Q310.168 311.094 326.379 297.412 Z" fill="url(#poster-spider-man-red)" stroke="#080f24" stroke-width="2.7" stroke-linejoin="round" stroke-linecap="round" /><g transform="translate(312.54 254.055) rotate(-2.573)"><path d="M-25 -31 Q-9 -46 12 -40 Q33 -34 36 -16 Q43 1 32 24 Q22 39 6 44 Q-16 36 -28 19 Q-42 -8 -25 -31 Z" fill="url(#poster-spider-man-glove)" stroke="#080f24" stroke-width="3.3" stroke-linejoin="round" stroke-linecap="round" /><path d="M-25 -31 Q-32 -9 -22 17 Q-13 31 4 40 L6 44 Q-16 36 -28 19 Q-42 -8 -25 -31 Z" fill="#83102e" stroke="none" stroke-width="0" stroke-linejoin="round" stroke-linecap="round" opacity=".7"/><path d="M-15 -34 Q2 -42 17 -32 M21 -29 Q32 -17 32 -6" fill="none" stroke="#ff9ba0" stroke-width="2.2" stroke-linejoin="round" stroke-linecap="round" opacity=".65"/><path d="M7 -4 L-25 -31" fill="none" stroke="#630c2a" stroke-width="1.3" stroke-linecap="round" opacity=".85"/><path d="M7 -4 L-34 -7" fill="none" stroke="#630c2a" stroke-width="1.3" stroke-linecap="round" opacity=".85"/><path d="M7 -4 L-25 22" fill="none" stroke="#630c2a" stroke-width="1.3" stroke-linecap="round" opacity=".85"/><path d="M7 -4 L5 43" fill="none" stroke="#630c2a" stroke-width="1.3" stroke-linecap="round" opacity=".85"/><path d="M7 -4 L30 27" fill="none" stroke="#630c2a" stroke-width="1.3" stroke-linecap="round" opacity=".85"/><path d="M7 -4 L37 2" fill="none" stroke="#630c2a" stroke-width="1.3" stroke-linecap="round" opacity=".85"/><path d="M7 -4 L27 -31" fill="none" stroke="#630c2a" stroke-width="1.3" stroke-linecap="round" opacity=".85"/><path d="M7 -4 L4 -40" fill="none" stroke="#630c2a" stroke-width="1.3" stroke-linecap="round" opacity=".85"/><path d="M-25 -22 Q-2 -34 29 -23 M-32 -9 Q-7 -21 36 -10 M-30 5 Q-7 -5 38 5 M-23 21 Q0 10 31 18 M-11 34 Q10 25 22 31" fill="none" stroke="#5e0d2a" stroke-width="1.4" stroke-linejoin="round" stroke-linecap="round" opacity=".9"/><path d="M-28 -14 Q-15 -21 1 -7 Q-8 10.4 -21 10 Q-30 3 -28 -14 Z" fill="#080f24" stroke="#080f24" stroke-width="2.5" stroke-linejoin="round" stroke-linecap="round" /><path d="M-25 -12 Q-14 -16 -3 -7 Q-10 7.2 -20 6 Q-26 1 -25 -12 Z" fill="url(#poster-spider-man-eye)" stroke="none" stroke-width="0" stroke-linejoin="round" stroke-linecap="round" /><path d="M8 -7 Q22 -26 34 -18 Q34 5 20 15 Q9 12 8 -7 Z" fill="#080f24" stroke="#080f24" stroke-width="2.5" stroke-linejoin="round" stroke-linecap="round" /><path d="M12 -6 Q23 -21 31 -15 Q30 4 20 10 Q13 8 12 -6 Z" fill="url(#poster-spider-man-eye)" stroke="none" stroke-width="0" stroke-linejoin="round" stroke-linecap="round" /><path d="M-21 -10 Q-15 -13 -9 -10 M17 -7 Q24 -15 27 -13" fill="none" stroke="#ffffff" stroke-width="1.7" stroke-linejoin="round" stroke-linecap="round" opacity=".75"/></g><path d="M337.786 294.825 L296.584 370.419 Q301.96 392.398 323.939 387.022 L371.981 315.579 Q365.261 288.105 337.786 294.825 Z" fill="url(#poster-spider-man-blue)" stroke="#101323" stroke-width="3" stroke-linejoin="round" stroke-linecap="round" /><path d="M306.039 394.153 L395.305 416.504 Q412.504 406.695 402.695 389.496 L314.484 363.288 Q294.829 374.498 306.039 394.153 Z" fill="url(#poster-spider-man-blue)" stroke="#101323" stroke-width="3" stroke-linejoin="round" stroke-linecap="round" /><circle cx="310.262" cy="378.72" r="15" fill="url(#poster-spider-man-blue)" stroke="none" stroke-width="2" /><path d="M362.541 301.748 Q317.919 375.266 406.657 399.546" fill="none" stroke="#080e36" stroke-width="5.6000000000000005" stroke-linecap="round" opacity=".55"/><path d="M336.931 294.306 L318.97 329.681 Q325.018 354.408 349.745 348.36 L372.836 316.098 Q365.78 287.25 336.931 294.306 Z" fill="url(#poster-spider-man-red)" stroke="#080f24" stroke-width="2.6" stroke-linejoin="round" stroke-linecap="round" /><g transform="translate(354.884 305.202) rotate(121.256)"><path d="M3 0 L35.56 0" fill="none" stroke="#480c2a" stroke-width="1.35" stroke-linecap="round" opacity=".82"/><path d="M4 -8.96 L34.56 -8.32" fill="none" stroke="#550d2d" stroke-width="1.15" stroke-linecap="round" opacity=".75"/><path d="M4 8.8 L34.56 8.32" fill="none" stroke="#550d2d" stroke-width="1.15" stroke-linecap="round" opacity=".75"/><path d="M8.89 -13.44 Q17.89 0 8.89 13.44" fill="none" stroke="#4c0c2b" stroke-width="1.15" stroke-linejoin="round" stroke-linecap="round" opacity=".82"/><path d="M16.78 -13.44 Q25.78 0 16.78 13.44" fill="none" stroke="#4c0c2b" stroke-width="1.15" stroke-linejoin="round" stroke-linecap="round" opacity=".82"/><path d="M24.67 -13.44 Q33.67 0 24.67 13.44" fill="none" stroke="#4c0c2b" stroke-width="1.15" stroke-linejoin="round" stroke-linecap="round" opacity=".82"/></g><path d="M349.529 314.024 Q310.262 368.72 319.135 381.148" fill="none" stroke="#7dc4e6" stroke-width="2.4" stroke-linejoin="round" stroke-linecap="round" opacity=".45"/><path d="M329.111 400.466 L395.833 414.575 Q410.575 406.167 402.167 391.425 L337.556 369.6 Q317.901 380.81 329.111 400.466 Z" fill="url(#poster-spider-man-glove)" stroke="#080f24" stroke-width="2.5" stroke-linejoin="round" stroke-linecap="round" /><g transform="translate(333.334 385.033) rotate(15.302)"><path d="M3 0 L64.08 0" fill="none" stroke="#480c2a" stroke-width="1.35" stroke-linecap="round" opacity=".82"/><path d="M4 -7.28 L63.08 -6.76" fill="none" stroke="#550d2d" stroke-width="1.15" stroke-linecap="round" opacity=".75"/><path d="M4 7.15 L63.08 6.76" fill="none" stroke="#550d2d" stroke-width="1.15" stroke-linecap="round" opacity=".75"/><path d="M11.013 -10.92 Q20.013 0 11.013 10.92" fill="none" stroke="#4c0c2b" stroke-width="1.15" stroke-linejoin="round" stroke-linecap="round" opacity=".82"/><path d="M21.027 -10.92 Q30.027 0 21.027 10.92" fill="none" stroke="#4c0c2b" stroke-width="1.15" stroke-linejoin="round" stroke-linecap="round" opacity=".82"/><path d="M31.04 -10.92 Q40.04 0 31.04 10.92" fill="none" stroke="#4c0c2b" stroke-width="1.15" stroke-linejoin="round" stroke-linecap="round" opacity=".82"/><path d="M41.053 -10.92 Q50.053 0 41.053 10.92" fill="none" stroke="#4c0c2b" stroke-width="1.15" stroke-linejoin="round" stroke-linecap="round" opacity=".82"/><path d="M51.067 -10.92 Q60.067 0 51.067 10.92" fill="none" stroke="#4c0c2b" stroke-width="1.15" stroke-linejoin="round" stroke-linecap="round" opacity=".82"/></g><circle cx="310.262" cy="378.72" r="5" fill="#131e4c" stroke="none" stroke-width="0" opacity=".4"/><path d="M343.184 387.728 L385.867 399.407" fill="none" stroke="#ff8990" stroke-width="2.1" stroke-linecap="round" opacity=".45"/><g transform="translate(399 403) rotate(-35.703)"><path d="M-7 -12 L8 -13 Q16 -12 18 -7 L18 7 Q15 15 4 13 L-8 9 Z" fill="url(#poster-spider-man-glove)" stroke="#080f24" stroke-width="2.5" stroke-linejoin="round" stroke-linecap="round" /><path d="M5 -10 Q12 -14 18 -16 L24 -18 Q31 -16 25 -11 L13 -5 Z" fill="url(#poster-spider-man-glove)" stroke="#080f24" stroke-width="2.1" stroke-linejoin="round" stroke-linecap="round" /><path d="M9 9 L20 15 Q27 19 23 24 L12 15 Z" fill="url(#poster-spider-man-red)" stroke="#080f24" stroke-width="2.1" stroke-linejoin="round" stroke-linecap="round" /><path d="M15 -1 Q29 -3 25 4 L12 6 M15 4 Q27 7 20 12 L9 10 M-1 -3 Q7 -7 14 -3" fill="url(#poster-spider-man-glove)" stroke="#080f24" stroke-width="2.1" stroke-linejoin="round" stroke-linecap="round" /><path d="M-5 -8 L6 -8 M-5 1 L8 1 M-1 8 L8 8 M13 -12 L17 -10 M24 -14 L25 -11" fill="none" stroke="#530b28" stroke-width="1.2" stroke-linejoin="round" stroke-linecap="round" /><path d="M-3 -10 L5 -10" fill="none" stroke="#ffa0a0" stroke-width="1.7" stroke-linejoin="round" stroke-linecap="round" opacity=".6"/></g></svg>